# File created by Blade
# Date/Time:  Thu Jan 22 16:00:44 2015
# Frame Rate: 120.000 fps
#------------------------------------------------------
:FULLY-SPECIFIED
:DEGREES
885
root 2.119295 37.410124 6.229345 0.833751 -0.577629 1.992140
RightUpLeg 5.485364 -0.789815 -3.477026
RightLeg -0.917859 -0.000000 0.000000
RightFoot -11.226175 -10.987228 17.395479
RightToeBase 12.871685 -0.000000 -0.000000
LeftUpLeg 1.713021 3.183730 3.632586
LeftLeg 3.059351 -0.000000 -0.000000
LeftFoot -6.167315 7.169925 -19.672610
LeftToeBase 8.685743 -0.000000 -0.000000
Spine 27.342114 -6.455185 -6.850845
RightShoulder -22.487408 -36.427674 -10.713932
RightArm -2.991598 -12.833534 94.967704
RightForeArm 18.118535 -0.000000 10.065052
RightHand -11.904603 -0.000000 42.442174
RightHandThumb1 -24.326973 -0.000000 -32.862282
LeftShoulder -58.535753 44.849382 -26.237580
LeftArm 20.434005 8.105215 -93.431874
LeftForeArm 28.909208 0.000000 -1.560804
LeftHand -13.641609 0.000000 -50.432265
LeftHandThumb1 -26.253704 0.000000 33.147579
Head 5.569951 17.672090 -0.062567
886
root 2.124348 37.401790 6.302341 0.791566 -0.728817 2.008059
RightUpLeg 5.686151 -0.658305 -3.516160
RightLeg -1.052956 -0.000000 0.000000
RightFoot -11.246430 -10.921646 17.427181
RightToeBase 12.845486 -0.000000 -0.000000
LeftUpLeg 1.940638 3.304484 3.612975
LeftLeg 2.978823 -0.000000 -0.000000
LeftFoot -6.249583 7.164830 -19.606816
LeftToeBase 8.600464 -0.000000 -0.000000
Spine 26.700011 -6.333302 -6.675474
RightShoulder -22.332600 -35.748525 -10.610645
RightArm -2.695748 -13.196228 95.134985
RightForeArm 18.208919 -0.000000 10.443869
RightHand -11.684499 -0.000000 41.838637
RightHandThumb1 -24.326973 -0.000000 -32.862282
LeftShoulder -57.796216 44.307169 -25.791239
LeftArm 20.776866 8.623638 -93.495878
LeftForeArm 28.489942 0.000000 -1.257234
LeftHand -13.831001 -0.000000 -50.094257
LeftHandThumb1 -26.253704 0.000000 33.147579
Head 5.006973 17.677202 -0.156228
887
root 2.126423 37.393063 6.372976 0.755489 -0.885136 2.022709
RightUpLeg 5.868606 -0.544763 -3.551126
RightLeg -1.171016 -0.000000 0.000000
RightFoot -11.273639 -10.833794 17.441470
RightToeBase 12.873684 -0.000000 -0.000000
LeftUpLeg 2.145425 3.450100 3.600015
LeftLeg 2.914180 -0.000000 -0.000000
LeftFoot -6.371896 7.162278 -19.664887
LeftToeBase 8.612356 -0.000000 -0.000000
Spine 26.068826 -6.208388 -6.511957
RightShoulder -22.181307 -35.156163 -10.470128
RightArm -2.284685 -13.637656 95.207707
RightForeArm 18.340787 -0.000000 10.912117
RightHand -11.481116 -0.000000 41.068319
RightHandThumb1 -24.326973 -0.000000 -32.862282
LeftShoulder -57.104483 43.779417 -25.398129
LeftArm 21.164790 9.203374 -93.452831
LeftForeArm 28.438645 -0.000000 -0.804546
LeftHand -13.839918 -0.000000 -49.672928
LeftHandThumb1 -26.253704 0.000000 33.147579
Head 4.411720 17.677161 -0.249611
888
root 2.129480 37.382352 6.442072 0.742868 -1.065562 2.053148
RightUpLeg 6.021874 -0.432783 -3.606215
RightLeg -1.288838 -0.000000 0.000000
RightFoot -11.308044 -10.724201 17.409712
RightToeBase 12.886469 -0.000000 -0.000000
LeftUpLeg 2.339011 3.611062 3.568555
LeftLeg 2.830242 -0.000000 -0.000000
LeftFoot -6.439518 7.143713 -19.682876
LeftToeBase 8.403323 -0.000000 -0.000000
Spine 25.465109 -6.067510 -6.324020
RightShoulder -22.152005 -34.491556 -10.309920
RightArm -1.905895 -14.172682 95.124544
RightForeArm 18.472924 -0.000000 11.509619
RightHand -11.252650 -0.000000 40.145365
RightHandThumb1 -24.326973 -0.000000 -32.862282
LeftShoulder -56.334530 43.101696 -24.972202
LeftArm 21.299804 13.325438 -91.852659
LeftForeArm 24.621104 -0.000000 0.733843
LeftHand -14.561219 -0.000000 -49.323860
LeftHandThumb1 -26.253704 0.000000 33.147579
Head 3.647284 17.651028 -0.565158
889
root 2.132245 37.375055 6.505399 0.736442 -1.231368 2.068661
RightUpLeg 6.162750 -0.338956 -3.645749
RightLeg -1.410519 -0.000000 0.000000
RightFoot -11.265810 -10.644729 17.306373
RightToeBase 12.765748 -0.000000 -0.000000
LeftUpLeg 2.498943 3.753382 3.550789
LeftLeg 2.776377 -0.000000 -0.000000
LeftFoot -6.541874 7.159577 -19.633916
LeftToeBase 8.448408 -0.000000 -0.000000
Spine 24.845652 -5.902599 -6.149024
RightShoulder -22.003311 -33.913608 -10.154196
RightArm -1.476661 -14.460495 94.919823
RightForeArm 18.355368 -0.000000 12.283431
RightHand -11.049875 -0.000000 38.770568
RightHandThumb1 -24.326973 -0.000000 -32.862282
LeftShoulder -55.676018 42.596242 -24.577913
LeftArm 21.819832 13.646987 -91.669738
LeftForeArm 24.674434 -0.000000 1.316210
LeftHand -14.856763 -0.000000 -48.347945
LeftHandThumb1 -26.253704 0.000000 33.147579
Head 3.024742 17.621364 -0.676123
890
root 2.131654 37.366311 6.569209 0.768286 -1.339700 2.085381
RightUpLeg 6.270226 -0.335897 -3.670203
RightLeg -1.529013 -0.000000 0.000000
RightFoot -11.317749 -10.547692 17.370479
RightToeBase 12.882369 -0.000000 -0.000000
LeftUpLeg 2.608894 3.805100 3.534179
LeftLeg 2.731811 -0.000000 -0.000000
LeftFoot -6.649106 7.187425 -19.637206
LeftToeBase 8.443547 -0.000000 -0.000000
Spine 24.163327 -5.826297 -5.992153
RightShoulder -21.742444 -33.351405 -10.038912
RightArm -1.103295 -14.578163 94.558903
RightForeArm 17.878336 0.000000 13.287287
RightHand -10.496375 -0.000000 37.036125
RightHandThumb1 -24.326973 -0.000000 -32.862282
LeftShoulder -54.996275 42.129477 -24.106557
LeftArm 22.291385 13.667881 -91.499294
LeftForeArm 24.935471 -0.000000 2.077290
LeftHand -15.436426 -0.000000 -46.223722
LeftHandThumb1 -26.253704 0.000000 33.147579
Head 2.501562 17.618785 -0.771643
891
root 2.139340 37.358985 6.630314 0.802423 -1.545301 2.089851
RightUpLeg 6.345675 -0.238373 -3.702610
RightLeg -1.626465 -0.000000 0.000000
RightFoot -11.320431 -10.449294 17.364533
RightToeBase 12.891272 -0.000000 -0.000000
LeftUpLeg 2.742564 3.958517 3.513903
LeftLeg 2.657755 -0.000000 -0.000000
LeftFoot -6.738008 7.219754 -19.617332
LeftToeBase 8.361435 -0.000000 -0.000000
Spine 23.502968 -5.632877 -5.802726
RightShoulder -21.563478 -32.841948 -9.886602
RightArm -0.594825 -14.592532 93.965245
RightForeArm 16.981000 0.000000 14.493169
RightHand -9.901612 0.000000 34.671939
RightHandThumb1 -24.326973 -0.000000 -32.862282
LeftShoulder -54.291509 41.687741 -23.589662
LeftArm 22.771713 12.937201 -91.578875
LeftForeArm 26.145661 -0.000000 2.859164
LeftHand -15.886759 -0.000000 -43.624734
LeftHandThumb1 -26.253704 0.000000 33.147579
Head 1.931012 17.613598 -0.847621
892
root 2.149150 37.351403 6.689405 0.851165 -1.770710 2.071929
RightUpLeg 6.420692 -0.090422 -3.717514
RightLeg -1.765167 -0.000000 0.000000
RightFoot -11.252462 -10.389429 17.270257
RightToeBase 12.807954 -0.000000 -0.000000
LeftUpLeg 2.870017 4.129298 3.508416
LeftLeg 2.571887 -0.000000 -0.000000
LeftFoot -6.860587 7.272559 -19.592175
LeftToeBase 8.353869 -0.000000 -0.000000
Spine 22.860257 -5.477962 -5.586779
RightShoulder -21.314440 -32.273307 -9.797559
RightArm -0.083842 -14.653308 93.188500
RightForeArm 16.173893 -0.000000 15.767015
RightHand -9.074254 -0.000000 31.949542
RightHandThumb1 -24.326973 -0.000000 -32.862282
LeftShoulder -53.612746 41.218269 -23.164274
LeftArm 23.257593 12.669795 -91.261729
LeftForeArm 26.593506 -0.000000 3.994956
LeftHand -16.404776 -0.000000 -40.802107
LeftHandThumb1 -26.253704 0.000000 33.147579
Head 1.294711 17.671048 -0.960906
893
root 2.151325 37.344915 6.738101 0.935761 -1.922311 2.089859
RightUpLeg 6.443355 -0.005711 -3.743731
RightLeg -1.880694 -0.000000 0.000000
RightFoot -11.260001 -10.364751 17.235004
RightToeBase 12.840189 -0.000000 -0.000000
LeftUpLeg 2.905807 4.270469 3.482726
LeftLeg 2.533626 -0.000000 -0.000000
LeftFoot -6.927421 7.278839 -19.603829
LeftToeBase 8.279372 -0.000000 -0.000000
Spine 22.225617 -5.399748 -5.439581
RightShoulder -21.030155 -31.722922 -9.719374
RightArm 0.474120 -14.550772 92.320397
RightForeArm 14.892576 0.000000 17.131427
RightHand -8.319643 -0.000000 29.012000
RightHandThumb1 -24.326973 -0.000000 -32.862282
LeftShoulder -52.970899 40.770210 -22.775318
LeftArm 23.895128 12.669870 -90.609400
LeftForeArm 26.720576 -0.000000 5.269142
LeftHand -16.856499 -0.000000 -37.991092
LeftHandThumb1 -26.253704 0.000000 33.147579
Head 0.596366 17.679786 -1.115236
894
root 2.159076 37.334991 6.792482 1.063322 -2.092662 2.112427
RightUpLeg 6.423927 0.022135 -3.788545
RightLeg -1.989505 -0.000000 0.000000
RightFoot -11.292807 -10.283340 17.241163
RightToeBase 12.902792 -0.000000 -0.000000
LeftUpLeg 2.926933 4.429861 3.436830
LeftLeg 2.466626 -0.000000 -0.000000
LeftFoot -7.022715 7.293547 -19.576620
LeftToeBase 8.266729 -0.000000 -0.000000
Spine 21.560314 -5.425047 -5.326536
RightShoulder -20.639445 -31.201541 -9.644770
RightArm 1.126277 -14.588062 91.210738
RightForeArm 13.493559 0.000000 18.526357
RightHand -7.555686 0.000000 26.035100
RightHandThumb1 -24.326973 -0.000000 -32.862282
LeftShoulder -52.439206 40.169713 -22.434019
LeftArm 24.440854 12.667949 -89.756306
LeftForeArm 26.672143 0.000000 6.685209
LeftHand -17.177834 -0.000000 -35.093697
LeftHandThumb1 -26.253704 0.000000 33.147579
Head -0.187677 17.876102 -1.291158
